<?xml version="1.0" encoding="UTF-8" standalone="no"?>
<svg
   xmlns:dc="http://purl.org/dc/elements/1.1/"
   xmlns:cc="http://creativecommons.org/ns#"
   xmlns:rdf="http://www.w3.org/1999/02/22-rdf-syntax-ns#"
   xmlns:svg="http://www.w3.org/2000/svg"
   xmlns="http://www.w3.org/2000/svg"
   xmlns:sodipodi="http://sodipodi.sourceforge.net/DTD/sodipodi-0.dtd"
   xmlns:inkscape="http://www.inkscape.org/namespaces/inkscape"
   width="11.493147mm"
   height="11.209467mm"
   viewBox="0 0 11.493147 11.209467"
   version="1.1"
   id="svg1237"
   inkscape:version="1.0.1 (c497b03c, 2020-09-10)"
   sodipodi:docname="linkedin.svg">
  <defs
     id="defs1231" />
  <sodipodi:namedview
     id="base"
     pagecolor="#ffffff"
     bordercolor="#666666"
     borderopacity="1.0"
     inkscape:pageopacity="0.0"
     inkscape:pageshadow="2"
     inkscape:zoom="2.02"
     inkscape:cx="29.473033"
     inkscape:cy="5.8518562"
     inkscape:document-units="mm"
     inkscape:current-layer="layer2"
     inkscape:document-rotation="0"
     showgrid="false"
     fit-margin-top="0"
     fit-margin-left="0"
     fit-margin-right="0"
     fit-margin-bottom="0"
     inkscape:window-width="1252"
     inkscape:window-height="855"
     inkscape:window-x="0"
     inkscape:window-y="23"
     inkscape:window-maximized="0" />
  <metadata
     id="metadata1234">
    <rdf:RDF>
      <cc:Work
         rdf:about="">
        <dc:format>image/svg+xml</dc:format>
        <dc:type
           rdf:resource="http://purl.org/dc/dcmitype/StillImage" />
        <dc:title></dc:title>
      </cc:Work>
    </rdf:RDF>
  </metadata>
  <g
     inkscape:groupmode="layer"
     id="layer2"
     inkscape:label="Layer 2"
     transform="translate(-83.828462,-136.14166)">
    <g
       id="g1871"
       transform="matrix(0.46602588,0,0,-0.46602588,93.519712,145.69014)">
      <path
         d="m 0,0 h -3.564 v 5.578 c 0,1.33 -0.023,3.041 -1.853,3.041 -1.854,0 -2.138,-1.45 -2.138,-2.946 V 0 h -3.56 v 11.469 h 3.417 V 9.901 h 0.048 c 0.477,0.902 1.639,1.852 3.373,1.852 C -0.666,11.753 0,9.379 0,6.29 Z m -15.133,13.036 c -1.145,0 -2.07,0.926 -2.07,2.067 0,1.141 0.925,2.068 2.07,2.068 1.139,0 2.065,-0.927 2.065,-2.068 0,-1.141 -0.926,-2.067 -2.065,-2.067 M -13.351,0 h -3.569 v 11.469 h 3.569 z M 1.775,20.479 h -20.482 c -0.978,0 -1.774,-0.776 -1.774,-1.733 V -1.82 c 0,-0.957 0.796,-1.734 1.774,-1.734 H 1.775 c 0.98,0 1.777,0.777 1.777,1.734 v 20.566 c 0,0.957 -0.797,1.733 -1.777,1.733"
         style="fill:#ffffff;fill-opacity:1;fill-rule:nonzero;stroke:none"
         id="path1873" />
    </g>
  </g>
</svg>
